<?xml version="1.0" encoding="utf-8"?>
<!-- Generator: Adobe Illustrator 21.0.0, SVG Export Plug-In . SVG Version: 6.00 Build 0)  -->
<svg version="1.1" id="Layer_1" xmlns="http://www.w3.org/2000/svg" xmlns:xlink="http://www.w3.org/1999/xlink" x="0px" y="0px"
	 viewBox="0 0 72 72" style="enable-background:new 0 0 72 72;" xml:space="preserve">
<style type="text/css">
	.st0{display:none;}
	.st1{display:inline;fill:#008000;}
	.st2{fill:#008000;}
</style>
<g class="st0">
	<path class="st1" d="M33.3,31.5c0.1-2,0.4-3.3,1.7-4.7c6.7-7.6,13.2-15.4,19.8-23.1c0.8-1,1.5-2.7,3.2-2.1c2,0.7,1.1,2.6,1,4
		c-0.7,11.8-5.6,21.8-12.6,31.1c-2,2.7-3,1-4.6-0.1c-1.8-1.2-4.2-4.7-5.2-3.3c-1.5,2.2,2.3,3.5,3.6,5.3c1.2,1.5,2.5,3,5,1.9
		c1.8-0.8,3.5,0.4,4.9,1.8c4.2,4.3,8.4,8.6,12.7,12.8c2.8,2.8,2.4,5.3-0.2,7.9c-2.5,2.5-5.1,2.7-7.6,0.2c-4.5-4.4-8.9-8.9-13.3-13.4
		c-0.7-0.7-1.6-2-1.4-2.7c1.7-6-3.6-7.5-6.4-11.1c-0.7,1.9,0.7,2.3,1.3,2.9c2.1,2.1,2.5,4.2,0.5,6.5C31.9,49.8,28,54.4,24.1,59
		c-2.3,2.7-4.7,2.3-7.2,0.2c-2.5-2.2-3.1-4.5-0.9-7.2c4.3-5,8.5-10.1,13-14.9c2.1-2.2,3-3.6,0.3-5.8c-2.5-2-4.4-6.3-8.2-1.5
		c-0.5,0.7-1.4,0.5-2.1,0c-3.6-2.6-7.3-5.1-10.9-7.7c-0.7-0.5-1.3-1.2-0.8-1.9c0.6-1,1.6-0.5,2.4,0c2.6,1.8,5.3,3.7,7.9,5.6
		c1.3,0.9,2.5,2,3.9,0.2c1.5-1.8-0.3-2.5-1.1-3.3c-2.6-2.8-5.4-5.5-8.1-8.2c-0.7-0.7-1.4-1.5-0.4-2.3c0.7-0.6,1.5-0.1,2,0.5
		c2.8,2.8,5.7,5.6,8.5,8.5c0.8,0.8,1.5,2,3,0.8c1.6-1.2,0.9-2.3,0.1-3.5c-1.8-2.5-3.6-5-5.3-7.6c-0.6-0.9-2.1-2-0.6-3.1
		c1.2-0.8,1.9,0.7,2.4,1.4c2.3,3.1,4.5,6.3,6.7,9.4c0.7,1,1.7,2.3,0.3,3.2c-3.9,2.8-1.5,4.6,0.8,6.6C31.2,29.4,32.2,30.5,33.3,31.5z
		 M55.4,6.8C50.1,13,45,19.4,39.5,25.4c-2.7,2.9-2.4,4.8,0.8,6.7c0.9,0.5,1.7,1.3,2.5,2c1.1,1,1.8,0.7,2.6-0.4
		C51.2,25.7,55.5,17.1,55.4,6.8z M46.4,42.7c-1.7,0.4-2.6,1.4-3.3,2.6c-0.8,1.3,0,2.3,0.9,3.2c4.2,4.2,8.5,8.4,12.6,12.7
		c1.5,1.6,2.8,1.4,4.3,0c1.7-1.7,1.6-3-0.1-4.6c-4.2-4.1-8.2-8.2-12.3-12.3C47.8,43.6,47,43.2,46.4,42.7z M34.4,42.4
		c-0.3-1.5-1.3-2.3-2.3-2.9c-1.4-0.8-2.3,0.1-3.1,1.1c-3.4,4.1-6.9,8.2-10.4,12.2c-1.5,1.7-1.8,3,0.2,4.6c1.9,1.6,3,0.5,4.2-0.9
		c3.3-4,6.7-7.9,10.1-11.9C33.5,43.9,33.9,43.1,34.4,42.4z"/>
</g>
<g class="st0">
	<path class="st1" d="M41.5,65.4c-10.3-0.2-14.4-7.6-9.4-15.9c1.6-2.6,3.2-5.5,5.4-7.5c5.5-5.1,5.5-12.4,8.3-18.6
		c0.8-1.9-0.9-2.8-1.9-3.8c-2.8-2.7-1.9-4.1,1.5-4.8c1.7-0.4,3.3-1.5,4.9-1.4c6,0.3,7.8-3.3,8.6-8.3c0.2-1.1,0-3.4,2.2-2.7
		c1.6,0.5,0.4,2.2,0.2,3.3c-0.1,0.9-0.3,1.9-0.7,2.7c-1.8,3.8-1.3,7,2,9.8c1.4,1.2,2.3,2.9,3.4,4.4c1.2,1.6,1.1,2.8-1.1,3.3
		c-3.2,0.7-3.1,3.2-3.9,5.8c-3.2,9.9-4.5,20.6-11.2,29.2C47.5,63.7,44.6,65.3,41.5,65.4z M56.7,34.8c-0.5-2.7-1.9-5.4-4.2-7.1
		c-1.3-0.9-3.5,0.5-4.2,1.9c-4,7.9-10,14.5-14.5,22c-1.6,2.7-2.6,5.6,0.1,8c2.7,2.5,6,3.9,9.8,2.5c2.3-0.8,3.9-2.5,5.2-4.4
		C53.4,50.9,54.9,43,56.7,34.8z M62.8,23.5c-4.9-9.3-7.9-10.4-16.8-5.8c1.8,2.3,4.1,4.5,2,7.6c2.5,0.9,4-2.8,6.2-0.7
		c1.6,1.5,2,4,4.2,5.3C58.8,25.6,58.8,25.6,62.8,23.5z"/>
	<path class="st1" d="M19.5,37.6c-5.1-0.1-9.8-1.4-13.6-4.9C2.1,29.2,2.2,25,2.6,20c0.7-8.4,7.3-8.8,12.6-10.8c3.3-1.3,5.9-1.8,4-6
		c-0.3-0.7-0.5-1.7,0.3-2c1.1-0.5,1.9,0.5,1.9,1.3C21.3,8.4,26,9.2,30,10.9c1.7,0.7,3.3,1.6,4.9,2.7c1.3,0.9,4,1.6,1,3.8
		c-0.7,0.5,0.1,1.4,0.3,2.1c2.4,7.5,0,12.9-7.3,16.1C26,37,22.8,37.6,19.5,37.6z M20.5,35c3.7-0.1,7.8-1.2,11.2-4.2
		c2.9-2.6,4.1-5.8,2.5-9.6c-0.6-1.4-1.2-3.7-3.5-2.8c-2.2,0.8-0.5,2.7-0.5,4c0,0.7,0.4,1.5,0.5,2.2c0.1,0.9,0.4,1.9-0.6,2.5
		c-0.8,0.4-1.5-0.1-2.1-0.6c-0.9-0.6-1.8-1.2-2.5-2c-3.6-4-7.2-4.6-11-0.3c-0.9,0.9-2.2,2.4-3.5,1.6c-1.7-1-0.3-2.8-0.1-4.2
		c0.2-1.2,1.4-2.7-0.9-3.4c-1.7-0.5-2.9-0.1-4,1.4C3.6,23,4.2,27.8,7.7,30.9C11.1,33.9,15.2,35.1,20.5,35z M31.9,15.5
		c-3.1-2.4-6.8-4.2-8.1-4.4c-2.6-0.5-1.9,2.6-3.4,3.1c-2.9,0.9-0.2-3.9-3-3.1c-3,0.8-6.1,1.4-8.5,4.2c3.1,0.9,7.5-0.1,5.3,6
		c5-6.8,8.7-2.2,13.2,1.3C25.5,17.7,26.4,15.2,31.9,15.5z"/>
</g>
<g>
	<path class="st2" d="M66,53c-4.4-1-7.3-1.7-10.3-2.2c-3.7-0.5-5.4,1.3-4.7,5c0.5,2.8,1.2,5.5,1.9,8.7c-3-0.6-4.1-2.8-5.7-4.3
		c-4.8-4.4-7.1-3.8-9,2.5c-0.6,2-1.2,4-2.3,7.4c-1.4-4-2.3-6.7-3.3-9.4c-1.4-3.9-3.8-4.2-6.9-1.7c-2.1,1.8-4.2,3.6-6.6,5.6
		c-0.5-2.8,0.7-4.9,1.2-7.2c1.2-6-0.6-7.8-6.6-6.4c-2.2,0.5-4.5,1.1-7.5,1.8c1.5-3.4,4.2-4.9,5.9-7.2c2.8-3.7,2.4-5.5-1.9-7.1
		c-2.6-1-5.3-1.7-9.1-3c4.1-1.4,7.1-2.4,10-3.6c3.2-1.2,3.5-3.3,1.6-5.8c-1.9-2.4-4.1-4.7-6.8-7.9c4,0.8,7,1.5,10,1.9
		c3.5,0.5,5.1-1.1,4.6-4.6c-0.5-3.1-1.2-6.1-2-10.2c2.7,2.4,4.6,4.2,6.6,5.9c4.3,3.5,5.9,3.1,7.8-2.2c0.9-2.3,1.5-4.7,2.4-7.5
		c2.3,2.3,2.2,5.3,3.2,7.7c2.1,5,3.9,5.5,8,1.9c1.8-1.6,3.6-3.4,6.5-6.1c-0.8,4-1.3,6.5-1.8,9c-1,5.2,0.6,6.8,5.9,5.8
		c2.4-0.5,4.8-1.1,7.9-1.8c-1.3,3.4-4,4.9-5.7,7.1c-2.7,3.7-2.4,5.5,1.9,7.1c2.6,1,5.4,1.7,8.5,2.7c-2.9,2.2-6.2,2.3-9,3.5
		c-3.5,1.5-4.2,3.6-1.8,6.5C61,47.6,63,49.7,66,53z M36.2,16.7C25.7,16.6,17,25,16.8,35.5c-0.2,10,8.3,18.7,18.6,19
		c10.3,0.3,19.2-8.3,19.4-18.7C54.9,25.7,46.2,16.9,36.2,16.7z"/>
	<path class="st2" d="M24.4,45c15.9,5,25.1-3.5,21.7-19.2c6.3,3.8,5.5,14.7,1.1,19.6C41.1,52.1,31.6,52.3,24.4,45z"/>
</g>
</svg>
